<svg width="240" height="240" xmlns="http://www.w3.org/2000/svg">

 <g>
  <title>background</title>
  <rect fill="none" id="canvas_background" height="242" width="242" y="-1" x="-1"/>
 </g>
 <g>
  <title>Layer 1</title>
  <path stroke="null" id="svg_2" fill-rule="evenodd" clip-rule="evenodd" fill="#0C4DA2" d="m232.707126,96.372786c-1.519545,-13.066874 -19.087576,-21.390803 -45.341232,-23.364065c-32.985651,-2.479193 -99.276293,8.343339 -142.427076,32.480534c0.929696,-0.26267 1.943377,-0.383007 3.006863,-0.383007c3.309112,0 7.897044,1.075266 7.897044,7.819292l0,2.180939l-5.832573,0c0,0 0,-1.345053 0,-1.918916c0,-1.691829 -0.807625,-2.815618 -2.176289,-2.815618c-1.475111,0 -1.982928,1.103086 -2.142109,2.089716c-0.062501,0.33966 -0.090333,0.997629 0.021973,1.622603c0.666998,3.63533 9.542567,5.560716 10.528416,12.069892c0.094239,0.656676 0.307132,2.398969 0.027832,5.0729c-0.567388,5.189355 -4.040564,7.101154 -8.269118,7.101154c-4.397501,0 -8.50789,-2.085835 -8.50789,-9.018776l0,-2.369855l6.282284,0l0.003906,2.98383c0,1.694417 0.875008,2.824029 2.339865,2.824029c1.564956,0 2.092304,-1.057151 2.281759,-2.096833c0.1167,-0.582274 0.184572,-1.541085 -0.043946,-2.289631c-1.208019,-4.007986 -9.523524,-5.844089 -10.539647,-12.184406c-0.245119,-1.565023 -0.217775,-2.786504 -0.044434,-4.180727c0.255373,-2.085188 0.981943,-3.621097 2.037616,-4.706067c-10.77793,6.364254 -19.943052,13.603213 -26.533444,21.723347c-5.06987,6.246505 -7.646066,12.227753 -6.983462,17.930802c1.18214,10.171679 9.989837,15.867612 22.758019,19.598694c20.929389,6.11517 56.10549,5.250817 91.585793,-2.175764c27.040285,-5.660997 54.216801,-15.044018 74.938669,-26.978692c-0.854988,0.221911 -1.766618,0.323486 -2.702173,0.323486c-4.140663,0 -7.84138,-2.003669 -8.223708,-7.658843c-0.079102,-1.040976 -0.095216,-1.480917 -0.095216,-2.045722l0,-13.037113c0,-0.569335 0.07129,-1.519735 0.118165,-2.052839c0.515141,-5.798154 4.059607,-7.656902 8.215407,-7.656902c4.147499,0 7.763742,1.843867 8.207594,7.656902c0.07129,0.990513 0.042969,2.052839 0.042969,2.052839l0,1.018979l-5.89312,0l0,-1.722884c0,0 0,-0.749839 -0.073243,-1.194956c-0.101075,-0.675438 -0.544439,-2.247577 -2.332052,-2.247577c-1.710465,0 -2.216817,1.492562 -2.329611,2.247577c-0.083009,0.413414 -0.105958,0.96334 -0.105958,1.464742l0,14.171254c0,0.403063 0.016602,0.832005 0.062989,1.179428c0.09961,0.838474 0.687995,2.262458 2.384299,2.262458c1.697769,0 2.296896,-1.423983 2.393576,-2.262458c0.049317,-0.347423 0.067872,-0.776365 0.061524,-1.179428l0,-4.487391l-2.399924,0l0,-4.524268l8.278396,0l0,8.311637c-0.011719,0.564806 -0.018555,1.004746 -0.083497,2.045722c-0.159181,2.292218 -0.857918,3.984048 -1.908709,5.18612c8.78426,-5.390563 16.240382,-11.262472 21.800003,-17.517388c6.042535,-6.799019 10.522557,-14.387989 9.713467,-21.34875zm-159.719225,40.730709l-3.186064,-28.708693l-3.269073,28.708693l-6.319882,0l4.335,-31.006734l10.401462,0l4.315469,31.006734l-6.276913,0zm31.102333,0l-0.159669,-28.708693l-4.029822,28.708693l-5.933159,0l-4.022986,-28.708693l-0.157228,28.708693l-5.848198,0l0.502934,-31.006734l9.549891,0l2.950222,24.232947l2.953152,-24.232947l9.533778,0l0.523442,31.006734l-5.862358,0zm28.181409,-5.962485c-0.556157,5.133068 -4.008337,7.023518 -8.187086,7.023518c-4.364297,0 -8.417069,-2.070307 -8.417069,-8.922378l0,-2.367267l6.209041,0l0.00293,2.976067c0,1.673714 0.877938,2.78521 2.332052,2.78521c1.550795,0 2.07912,-1.039682 2.255392,-2.070307c0.110841,-0.5661 0.169435,-1.524264 -0.041016,-2.273456c-1.194835,-3.960757 -9.431238,-5.782627 -10.432712,-12.051777c-0.257815,-1.549496 -0.219729,-2.76386 -0.055665,-4.13091c0.613287,-5.025671 3.981482,-6.828779 8.100171,-6.828779c3.272491,0 7.795481,1.04874 7.795481,7.731304l0,2.158295l-5.77349,0c0,0 0,-1.330819 0,-1.891096c0,-1.676302 -0.788581,-2.790386 -2.142598,-2.790386c-1.446302,0 -1.951678,1.079795 -2.119648,2.072895c-0.053711,0.33966 -0.083497,0.986631 0.022949,1.6019c0.661139,3.587454 9.438562,5.519957 10.409274,11.95279c0.103517,0.650206 0.306155,2.375031 0.041993,5.024377zm21.95186,-0.767308c-0.419926,5.787156 -3.858922,7.671783 -8.170484,7.671783c-4.304238,0 -7.746652,-1.884627 -8.156812,-7.671783c-0.021485,-0.30537 -0.055665,-1.475094 -0.049805,-2.052839l0,-22.224102l5.916069,0l0,22.939005c-0.005859,0.396593 0,0.846885 0.062989,1.172958c0.110841,0.772483 0.616705,2.255341 2.227559,2.255341c1.630386,0 2.123554,-1.482858 2.248556,-2.255341c0.049317,-0.32672 0.060547,-0.776365 0.049317,-1.172958l0,-22.939005l5.924859,0l0,22.224102c0.020996,0.577098 -0.023926,1.747469 -0.052247,2.052839zm26.194574,6.403719l-8.329177,0l-5.918511,-25.761093l0.332034,25.761093l-5.738333,0l0,-30.680661l8.683673,0l5.506886,24.961437l-0.319827,-24.961437l5.783256,0l0,30.680661z"/>
  <path id="svg_4" fill-rule="evenodd" clip-rule="evenodd" fill="#DCDCDC" d="m141.276,394.507l-8.872,47.626l12.934,0l6.69,-44.097l6.521,44.097l12.845,0l-8.832,-47.626l-21.286,0zm117.21,12.392c-0.218,-0.944 -0.156,-1.939 -0.047,-2.461c0.345,-1.525 1.379,-3.184 4.339,-3.184c2.77,0 4.384,1.71 4.384,4.286c0,0.86 0,2.903 0,2.903l11.814,0l0,-3.315c0,-10.265 -9.254,-11.874 -15.952,-11.874c-8.428,0 -15.322,2.77 -16.577,10.487c-0.335,2.1 -0.414,3.965 0.114,6.346c2.048,9.63 18.905,12.428 21.349,18.511c0.432,1.15 0.312,2.622 0.086,3.492c-0.363,1.582 -1.443,3.181 -4.617,3.181c-2.976,0 -4.771,-1.707 -4.771,-4.278l-0.006,-4.571l-12.708,0l0,3.636c0,10.525 8.294,13.704 17.225,13.704c8.552,0 15.617,-2.902 16.754,-10.786c0.541,-4.07 0.126,-6.72 -0.084,-7.718c-1.987,-9.881 -19.949,-12.85 -21.303,-18.359zm-155.753,-0.123c-0.23,-0.96 -0.174,-1.97 -0.045,-2.493c0.326,-1.515 1.365,-3.209 4.384,-3.209c2.801,0 4.453,1.725 4.453,4.323c0,0.882 0,2.948 0,2.948l11.937,0l0,-3.351c0,-10.357 -9.389,-12.01 -16.161,-12.01c-8.506,0 -15.456,2.803 -16.726,10.583c-0.354,2.141 -0.412,4.017 0.092,6.421c2.079,9.738 19.097,12.56 21.569,18.715c0.467,1.151 0.329,2.622 0.09,3.518c-0.388,1.598 -1.467,3.221 -4.669,3.221c-2.997,0 -4.788,-1.735 -4.788,-4.339l-0.008,-4.583l-12.859,0l0,3.64c0,10.65 8.413,13.854 17.412,13.854c8.653,0 15.761,-2.936 16.922,-10.907c0.571,-4.106 0.135,-6.784 -0.058,-7.791c-2.016,-9.999 -20.18,-12.957 -21.545,-18.54zm110.884,-12.269l-6.044,37.223l-6.038,-37.223l-19.543,0l-1.03,47.626l11.969,0l0.321,-44.097l8.233,44.097l12.142,0l8.247,-44.097l0.327,44.097l11.999,0l-1.072,-47.626l-19.511,0zm111.287,0l-12.125,0l0,35.234c0.024,0.61 0,1.301 -0.102,1.802c-0.256,1.188 -1.265,3.464 -4.601,3.464c-3.298,0 -4.332,-2.276 -4.559,-3.464c-0.129,-0.501 -0.141,-1.191 -0.129,-1.802l0,-35.234l-12.106,0l0,34.136c-0.014,0.887 0.057,2.684 0.101,3.152c0.839,8.89 7.884,11.785 16.693,11.785c8.823,0 15.86,-2.896 16.722,-11.785c0.058,-0.469 0.149,-2.266 0.105,-3.152l0,-34.136l0.001,0zm83.153,20.887l0,6.95l4.91,0l0,6.893c0.014,0.619 -0.024,1.277 -0.125,1.812c-0.198,1.287 -1.426,3.475 -4.898,3.475c-3.472,0 -4.676,-2.188 -4.881,-3.475c-0.093,-0.534 -0.128,-1.192 -0.128,-1.812l0,-21.768c0,-0.77 0.046,-1.614 0.218,-2.25c0.229,-1.16 1.265,-3.452 4.767,-3.452c3.657,0 4.566,2.414 4.773,3.452c0.149,0.684 0.149,1.836 0.149,1.836l0,2.646l12.061,0l0,-1.565c0,0 0.057,-1.631 -0.087,-3.153c-0.909,-8.929 -8.309,-11.76 -16.797,-11.76c-8.506,0 -15.76,2.854 -16.814,11.76c-0.096,0.82 -0.24,2.279 -0.24,3.153l0,20.025c0,0.867 0.032,1.543 0.195,3.143c0.78,8.687 8.354,11.764 16.827,11.764c8.521,0 16.035,-3.077 16.841,-11.764c0.132,-1.6 0.146,-2.275 0.171,-3.143l0,-12.767l-16.942,0zm-40.832,17.454l-11.271,-38.341l-17.772,0l0,47.125l11.744,0l-0.679,-39.569l12.112,39.569l17.046,0l0,-47.125l-11.835,0l0.655,38.341z"/>
 </g>
</svg>